<mxfile host="Electron" agent="Mozilla/5.0 (Windows NT 10.0; Win64; x64) AppleWebKit/537.36 (KHTML, like Gecko) draw.io/27.0.5 Chrome/134.0.6998.205 Electron/35.3.0 Safari/537.36" version="27.0.5">
  <diagram name="Page-1" id="M1aTCseipY9RHXckLLh5">
    <mxGraphModel dx="1351" dy="956" grid="0" gridSize="10" guides="1" tooltips="1" connect="1" arrows="1" fold="1" page="1" pageScale="1" pageWidth="850" pageHeight="1100" background="none" math="0" shadow="0">
      <root>
        <mxCell id="0" />
        <mxCell id="1" parent="0" />
        <mxCell id="LqUghKGCnasKdJAZxhgk-24" style="edgeStyle=orthogonalEdgeStyle;rounded=0;orthogonalLoop=1;jettySize=auto;html=1;exitX=0.5;exitY=1;exitDx=0;exitDy=0;exitPerimeter=0;entryX=0.5;entryY=0;entryDx=0;entryDy=0;" parent="1" source="LqUghKGCnasKdJAZxhgk-1" target="LqUghKGCnasKdJAZxhgk-16" edge="1">
          <mxGeometry relative="1" as="geometry" />
        </mxCell>
        <mxCell id="LqUghKGCnasKdJAZxhgk-1" value="&lt;b style=&quot;&quot;&gt;&lt;font style=&quot;font-size: 16px;&quot;&gt;START&lt;/font&gt;&lt;/b&gt;" style="strokeWidth=2;html=1;shape=mxgraph.flowchart.start_1;whiteSpace=wrap;shadow=1;strokeColor=default;align=center;verticalAlign=middle;fontFamily=Helvetica;fontSize=12;fontColor=default;fillColor=default;" parent="1" vertex="1">
          <mxGeometry x="216" y="58" width="100" height="60" as="geometry" />
        </mxCell>
        <mxCell id="LqUghKGCnasKdJAZxhgk-26" style="edgeStyle=orthogonalEdgeStyle;rounded=0;orthogonalLoop=1;jettySize=auto;html=1;exitX=0.5;exitY=1;exitDx=0;exitDy=0;entryX=0.5;entryY=0;entryDx=0;entryDy=0;" parent="1" source="LqUghKGCnasKdJAZxhgk-15" target="LqUghKGCnasKdJAZxhgk-17" edge="1">
          <mxGeometry relative="1" as="geometry" />
        </mxCell>
        <mxCell id="LqUghKGCnasKdJAZxhgk-15" value="&lt;font style=&quot;font-size: 14px;&quot;&gt;&lt;b&gt;def open_file():&lt;/b&gt;&lt;/font&gt;" style="shape=process;whiteSpace=wrap;html=1;backgroundOutline=1;strokeWidth=2;shadow=1;" parent="1" vertex="1">
          <mxGeometry x="196.75" y="250" width="138.5" height="60" as="geometry" />
        </mxCell>
        <mxCell id="LqUghKGCnasKdJAZxhgk-25" style="edgeStyle=orthogonalEdgeStyle;rounded=0;orthogonalLoop=1;jettySize=auto;html=1;exitX=0.5;exitY=1;exitDx=0;exitDy=0;entryX=0.5;entryY=0;entryDx=0;entryDy=0;" parent="1" source="LqUghKGCnasKdJAZxhgk-16" target="LqUghKGCnasKdJAZxhgk-15" edge="1">
          <mxGeometry relative="1" as="geometry" />
        </mxCell>
        <mxCell id="LqUghKGCnasKdJAZxhgk-16" value="&lt;b&gt;import json&lt;/b&gt;&lt;div&gt;&lt;b&gt;import os&lt;/b&gt;&lt;/div&gt;" style="rounded=0;whiteSpace=wrap;html=1;strokeWidth=2;shadow=1;" parent="1" vertex="1">
          <mxGeometry x="211" y="163" width="110" height="42" as="geometry" />
        </mxCell>
        <mxCell id="LqUghKGCnasKdJAZxhgk-27" style="edgeStyle=orthogonalEdgeStyle;rounded=0;orthogonalLoop=1;jettySize=auto;html=1;exitX=0.5;exitY=1;exitDx=0;exitDy=0;entryX=0.5;entryY=0;entryDx=0;entryDy=0;" parent="1" source="LqUghKGCnasKdJAZxhgk-17" target="LqUghKGCnasKdJAZxhgk-18" edge="1">
          <mxGeometry relative="1" as="geometry" />
        </mxCell>
        <mxCell id="LqUghKGCnasKdJAZxhgk-17" value="&lt;font style=&quot;font-size: 14px;&quot;&gt;&lt;b&gt;def read_json():&lt;/b&gt;&lt;/font&gt;" style="shape=process;whiteSpace=wrap;html=1;backgroundOutline=1;strokeWidth=2;shadow=1;" parent="1" vertex="1">
          <mxGeometry x="196.75" y="355" width="138.5" height="60" as="geometry" />
        </mxCell>
        <mxCell id="LqUghKGCnasKdJAZxhgk-28" style="edgeStyle=orthogonalEdgeStyle;rounded=0;orthogonalLoop=1;jettySize=auto;html=1;exitX=0.5;exitY=1;exitDx=0;exitDy=0;entryX=0.5;entryY=0;entryDx=0;entryDy=0;" parent="1" source="LqUghKGCnasKdJAZxhgk-18" target="LqUghKGCnasKdJAZxhgk-19" edge="1">
          <mxGeometry relative="1" as="geometry" />
        </mxCell>
        <mxCell id="LqUghKGCnasKdJAZxhgk-18" value="&lt;font style=&quot;font-size: 14px;&quot;&gt;&lt;b&gt;def title():&lt;/b&gt;&lt;/font&gt;" style="shape=process;whiteSpace=wrap;html=1;backgroundOutline=1;strokeWidth=2;shadow=1;" parent="1" vertex="1">
          <mxGeometry x="196.75" y="460" width="138.5" height="60" as="geometry" />
        </mxCell>
        <mxCell id="LqUghKGCnasKdJAZxhgk-29" style="edgeStyle=orthogonalEdgeStyle;rounded=0;orthogonalLoop=1;jettySize=auto;html=1;exitX=0.5;exitY=1;exitDx=0;exitDy=0;entryX=0.5;entryY=0;entryDx=0;entryDy=0;" parent="1" source="LqUghKGCnasKdJAZxhgk-19" target="LqUghKGCnasKdJAZxhgk-20" edge="1">
          <mxGeometry relative="1" as="geometry" />
        </mxCell>
        <mxCell id="LqUghKGCnasKdJAZxhgk-19" value="&lt;font style=&quot;font-size: 14px;&quot;&gt;&lt;b&gt;def caption_file():&lt;/b&gt;&lt;/font&gt;" style="shape=process;whiteSpace=wrap;html=1;backgroundOutline=1;strokeWidth=2;shadow=1;" parent="1" vertex="1">
          <mxGeometry x="196.75" y="582" width="138.5" height="60" as="geometry" />
        </mxCell>
        <mxCell id="LqUghKGCnasKdJAZxhgk-30" style="edgeStyle=orthogonalEdgeStyle;rounded=0;orthogonalLoop=1;jettySize=auto;html=1;exitX=0.5;exitY=1;exitDx=0;exitDy=0;entryX=0.5;entryY=0;entryDx=0;entryDy=0;" parent="1" source="LqUghKGCnasKdJAZxhgk-20" target="LqUghKGCnasKdJAZxhgk-22" edge="1">
          <mxGeometry relative="1" as="geometry" />
        </mxCell>
        <mxCell id="LqUghKGCnasKdJAZxhgk-20" value="&lt;font style=&quot;font-size: 14px;&quot;&gt;&lt;b&gt;def name():&lt;/b&gt;&lt;/font&gt;" style="shape=process;whiteSpace=wrap;html=1;backgroundOutline=1;strokeWidth=2;shadow=1;" parent="1" vertex="1">
          <mxGeometry x="196.75" y="688" width="138.5" height="60" as="geometry" />
        </mxCell>
        <mxCell id="LqUghKGCnasKdJAZxhgk-32" style="edgeStyle=orthogonalEdgeStyle;rounded=0;orthogonalLoop=1;jettySize=auto;html=1;exitX=0.5;exitY=1;exitDx=0;exitDy=0;entryX=0.5;entryY=0;entryDx=0;entryDy=0;" parent="1" source="LqUghKGCnasKdJAZxhgk-21" edge="1">
          <mxGeometry relative="1" as="geometry">
            <mxPoint x="266" y="980" as="targetPoint" />
          </mxGeometry>
        </mxCell>
        <mxCell id="LqUghKGCnasKdJAZxhgk-57" value="&lt;font style=&quot;font-size: 12px;&quot;&gt;&lt;b&gt;yes&lt;/b&gt;&lt;/font&gt;" style="edgeLabel;html=1;align=center;verticalAlign=middle;resizable=0;points=[];" parent="LqUghKGCnasKdJAZxhgk-32" vertex="1" connectable="0">
          <mxGeometry x="-0.2928" y="1" relative="1" as="geometry">
            <mxPoint x="-18" y="-5" as="offset" />
          </mxGeometry>
        </mxCell>
        <mxCell id="LqUghKGCnasKdJAZxhgk-21" value="&lt;span style=&quot;font-size: 14px;&quot;&gt;&lt;b&gt;if not open:&lt;/b&gt;&lt;/span&gt;" style="rhombus;whiteSpace=wrap;html=1;strokeWidth=2;rounded=0;arcSize=12;shadow=1;" parent="1" vertex="1">
          <mxGeometry x="201" y="884" width="130" height="64" as="geometry" />
        </mxCell>
        <mxCell id="LqUghKGCnasKdJAZxhgk-31" style="edgeStyle=orthogonalEdgeStyle;rounded=0;orthogonalLoop=1;jettySize=auto;html=1;exitX=0.5;exitY=1;exitDx=0;exitDy=0;entryX=0.5;entryY=0;entryDx=0;entryDy=0;" parent="1" source="LqUghKGCnasKdJAZxhgk-22" target="LqUghKGCnasKdJAZxhgk-21" edge="1">
          <mxGeometry relative="1" as="geometry" />
        </mxCell>
        <mxCell id="LqUghKGCnasKdJAZxhgk-22" value="&lt;b&gt;import json&lt;/b&gt;&lt;div&gt;&lt;b&gt;import os&lt;/b&gt;&lt;/div&gt;" style="rounded=0;whiteSpace=wrap;html=1;strokeWidth=2;shadow=1;" parent="1" vertex="1">
          <mxGeometry x="211" y="792" width="110" height="42" as="geometry" />
        </mxCell>
        <mxCell id="LqUghKGCnasKdJAZxhgk-34" value="&lt;b&gt;exit&lt;/b&gt;" style="rounded=0;whiteSpace=wrap;html=1;strokeWidth=2;shadow=1;" parent="1" vertex="1">
          <mxGeometry x="211" y="981" width="110" height="42" as="geometry" />
        </mxCell>
        <mxCell id="LqUghKGCnasKdJAZxhgk-35" value="&lt;b style=&quot;&quot;&gt;&lt;font style=&quot;font-size: 16px;&quot;&gt;END&lt;/font&gt;&lt;/b&gt;" style="strokeWidth=2;html=1;shape=mxgraph.flowchart.start_1;whiteSpace=wrap;shadow=1;strokeColor=default;align=center;verticalAlign=middle;fontFamily=Helvetica;fontSize=12;fontColor=default;fillColor=default;" parent="1" vertex="1">
          <mxGeometry x="397" y="972" width="100" height="60" as="geometry" />
        </mxCell>
        <mxCell id="LqUghKGCnasKdJAZxhgk-36" style="edgeStyle=orthogonalEdgeStyle;rounded=0;orthogonalLoop=1;jettySize=auto;html=1;exitX=1;exitY=0.5;exitDx=0;exitDy=0;entryX=0;entryY=0.5;entryDx=0;entryDy=0;entryPerimeter=0;" parent="1" source="LqUghKGCnasKdJAZxhgk-34" target="LqUghKGCnasKdJAZxhgk-35" edge="1">
          <mxGeometry relative="1" as="geometry" />
        </mxCell>
        <mxCell id="LqUghKGCnasKdJAZxhgk-39" value="&lt;b style=&quot;font-size: 14px;&quot;&gt;ادامه فلوچارت&amp;nbsp;&lt;/b&gt;&lt;div&gt;&lt;b style=&quot;font-size: 14px;&quot;&gt;در صفحه بعدی&lt;/b&gt;&lt;/div&gt;" style="ellipse;shape=cloud;whiteSpace=wrap;html=1;" parent="1" vertex="1">
          <mxGeometry x="387" y="874" width="120" height="80" as="geometry" />
        </mxCell>
        <mxCell id="LqUghKGCnasKdJAZxhgk-40" style="edgeStyle=orthogonalEdgeStyle;rounded=0;orthogonalLoop=1;jettySize=auto;html=1;exitX=1;exitY=0.5;exitDx=0;exitDy=0;entryX=0.086;entryY=0.529;entryDx=0;entryDy=0;entryPerimeter=0;" parent="1" source="LqUghKGCnasKdJAZxhgk-21" target="LqUghKGCnasKdJAZxhgk-39" edge="1">
          <mxGeometry relative="1" as="geometry" />
        </mxCell>
        <mxCell id="LqUghKGCnasKdJAZxhgk-59" value="&lt;font style=&quot;font-size: 12px;&quot;&gt;&lt;b&gt;no&lt;/b&gt;&lt;/font&gt;" style="edgeLabel;html=1;align=center;verticalAlign=middle;resizable=0;points=[];" parent="LqUghKGCnasKdJAZxhgk-40" vertex="1" connectable="0">
          <mxGeometry x="-0.1932" y="2" relative="1" as="geometry">
            <mxPoint x="-11" y="-8" as="offset" />
          </mxGeometry>
        </mxCell>
        <mxCell id="LqUghKGCnasKdJAZxhgk-44" style="edgeStyle=orthogonalEdgeStyle;rounded=0;orthogonalLoop=1;jettySize=auto;html=1;entryX=0.5;entryY=0;entryDx=0;entryDy=0;" parent="1" source="LqUghKGCnasKdJAZxhgk-42" edge="1">
          <mxGeometry relative="1" as="geometry">
            <mxPoint x="1279" y="168" as="targetPoint" />
          </mxGeometry>
        </mxCell>
        <mxCell id="LqUghKGCnasKdJAZxhgk-42" value="&lt;b style=&quot;font-size: 14px;&quot;&gt;ادامه فلوچارت&amp;nbsp;&lt;/b&gt;&lt;div&gt;&lt;span style=&quot;font-size: 14px;&quot;&gt;&lt;b&gt;از صفحه قبل&lt;/b&gt;&lt;/span&gt;&lt;/div&gt;" style="ellipse;shape=cloud;whiteSpace=wrap;html=1;" parent="1" vertex="1">
          <mxGeometry x="1219" y="48" width="120" height="80" as="geometry" />
        </mxCell>
        <mxCell id="LqUghKGCnasKdJAZxhgk-49" style="edgeStyle=orthogonalEdgeStyle;rounded=0;orthogonalLoop=1;jettySize=auto;html=1;exitX=0.5;exitY=1;exitDx=0;exitDy=0;entryX=0.5;entryY=0;entryDx=0;entryDy=0;" parent="1" target="LqUghKGCnasKdJAZxhgk-45" edge="1">
          <mxGeometry relative="1" as="geometry">
            <mxPoint x="1279" y="232" as="sourcePoint" />
          </mxGeometry>
        </mxCell>
        <mxCell id="LqUghKGCnasKdJAZxhgk-55" style="edgeStyle=orthogonalEdgeStyle;rounded=0;orthogonalLoop=1;jettySize=auto;html=1;exitX=1;exitY=0.5;exitDx=0;exitDy=0;entryX=0;entryY=0.5;entryDx=0;entryDy=0;" parent="1" target="LqUghKGCnasKdJAZxhgk-54" edge="1">
          <mxGeometry relative="1" as="geometry">
            <mxPoint x="1344" y="200" as="sourcePoint" />
          </mxGeometry>
        </mxCell>
        <mxCell id="LqUghKGCnasKdJAZxhgk-50" style="edgeStyle=orthogonalEdgeStyle;rounded=0;orthogonalLoop=1;jettySize=auto;html=1;exitX=0.5;exitY=1;exitDx=0;exitDy=0;entryX=0.5;entryY=0;entryDx=0;entryDy=0;" parent="1" source="LqUghKGCnasKdJAZxhgk-45" edge="1">
          <mxGeometry relative="1" as="geometry">
            <mxPoint x="1279" y="381" as="targetPoint" />
          </mxGeometry>
        </mxCell>
        <mxCell id="LqUghKGCnasKdJAZxhgk-45" value="&lt;span style=&quot;font-size: 14px;&quot;&gt;&lt;b&gt;print (&quot;عنوانهای فایل&quot;&lt;/b&gt;&lt;/span&gt;&lt;div&gt;&lt;span style=&quot;font-size: 14px;&quot;&gt;&lt;b&gt;,title())&lt;/b&gt;&lt;/span&gt;&lt;/div&gt;" style="shape=parallelogram;html=1;strokeWidth=2;perimeter=parallelogramPerimeter;whiteSpace=wrap;rounded=0;arcSize=12;size=0.165557275541797;shadow=1;" parent="1" vertex="1">
          <mxGeometry x="1194" y="277" width="170" height="49" as="geometry" />
        </mxCell>
        <mxCell id="LqUghKGCnasKdJAZxhgk-48" value="&lt;b style=&quot;&quot;&gt;&lt;font style=&quot;font-size: 16px;&quot;&gt;END&lt;/font&gt;&lt;/b&gt;" style="strokeWidth=2;html=1;shape=mxgraph.flowchart.start_1;whiteSpace=wrap;shadow=1;strokeColor=default;align=center;verticalAlign=middle;fontFamily=Helvetica;fontSize=12;fontColor=default;fillColor=default;" parent="1" vertex="1">
          <mxGeometry x="1229" y="616" width="100" height="60" as="geometry" />
        </mxCell>
        <mxCell id="LqUghKGCnasKdJAZxhgk-54" value="&lt;b&gt;exit&lt;/b&gt;" style="rounded=0;whiteSpace=wrap;html=1;strokeWidth=2;shadow=1;" parent="1" vertex="1">
          <mxGeometry x="1402" y="179" width="110" height="42" as="geometry" />
        </mxCell>
        <mxCell id="LqUghKGCnasKdJAZxhgk-56" style="edgeStyle=orthogonalEdgeStyle;rounded=0;orthogonalLoop=1;jettySize=auto;html=1;exitX=0.5;exitY=1;exitDx=0;exitDy=0;entryX=1;entryY=0.5;entryDx=0;entryDy=0;entryPerimeter=0;" parent="1" source="LqUghKGCnasKdJAZxhgk-54" target="LqUghKGCnasKdJAZxhgk-48" edge="1">
          <mxGeometry relative="1" as="geometry" />
        </mxCell>
        <mxCell id="LqUghKGCnasKdJAZxhgk-60" value="&lt;span style=&quot;font-size: 14px;&quot;&gt;&lt;b&gt;if not read :&lt;/b&gt;&lt;/span&gt;" style="rhombus;whiteSpace=wrap;html=1;strokeWidth=2;rounded=0;arcSize=12;shadow=1;" parent="1" vertex="1">
          <mxGeometry x="1214" y="168" width="130" height="64" as="geometry" />
        </mxCell>
        <mxCell id="LqUghKGCnasKdJAZxhgk-61" value="&lt;font style=&quot;font-size: 12px;&quot;&gt;&lt;b&gt;yes&lt;/b&gt;&lt;/font&gt;" style="edgeLabel;html=1;align=center;verticalAlign=middle;resizable=0;points=[];" parent="1" vertex="1" connectable="0">
          <mxGeometry x="1460" y="87" as="geometry">
            <mxPoint x="-111" y="101" as="offset" />
          </mxGeometry>
        </mxCell>
        <mxCell id="LqUghKGCnasKdJAZxhgk-62" value="&lt;font style=&quot;font-size: 12px;&quot;&gt;&lt;b&gt;no&lt;/b&gt;&lt;/font&gt;" style="edgeLabel;html=1;align=center;verticalAlign=middle;resizable=0;points=[];" parent="1" vertex="1" connectable="0">
          <mxGeometry x="1000" y="136" as="geometry">
            <mxPoint x="266" y="102" as="offset" />
          </mxGeometry>
        </mxCell>
        <mxCell id="LqUghKGCnasKdJAZxhgk-63" value="&lt;font style=&quot;font-size: 12px;&quot;&gt;&lt;b&gt;no&lt;/b&gt;&lt;/font&gt;" style="edgeLabel;html=1;align=center;verticalAlign=middle;resizable=0;points=[];" parent="1" vertex="1" connectable="0">
          <mxGeometry x="1009" y="151" as="geometry">
            <mxPoint x="261" y="-19" as="offset" />
          </mxGeometry>
        </mxCell>
        <mxCell id="LqUghKGCnasKdJAZxhgk-66" style="edgeStyle=orthogonalEdgeStyle;rounded=0;orthogonalLoop=1;jettySize=auto;html=1;exitX=0.5;exitY=1;exitDx=0;exitDy=0;entryX=0.5;entryY=0;entryDx=0;entryDy=0;" parent="1" source="LqUghKGCnasKdJAZxhgk-64" target="LqUghKGCnasKdJAZxhgk-65" edge="1">
          <mxGeometry relative="1" as="geometry" />
        </mxCell>
        <mxCell id="LqUghKGCnasKdJAZxhgk-64" value="&lt;span style=&quot;font-size: 14px;&quot;&gt;&lt;b&gt;print&amp;nbsp;&lt;/b&gt;&lt;/span&gt;&lt;div&gt;&lt;span style=&quot;font-size: 14px;&quot;&gt;&lt;b&gt;(&quot;مجموعه کپشنهای فایل&quot;&lt;/b&gt;&lt;/span&gt;&lt;div&gt;&lt;span style=&quot;font-size: 14px;&quot;&gt;&lt;b&gt;,caption_file())&lt;/b&gt;&lt;/span&gt;&lt;/div&gt;&lt;/div&gt;" style="shape=parallelogram;html=1;strokeWidth=2;perimeter=parallelogramPerimeter;whiteSpace=wrap;rounded=0;arcSize=12;size=0.165557275541797;shadow=1;" parent="1" vertex="1">
          <mxGeometry x="1194" y="381" width="170" height="56" as="geometry" />
        </mxCell>
        <mxCell id="LqUghKGCnasKdJAZxhgk-65" value="&lt;span style=&quot;font-size: 14px;&quot;&gt;&lt;b&gt;print&amp;nbsp;&lt;/b&gt;&lt;/span&gt;&lt;div&gt;&lt;span style=&quot;font-size: 14px;&quot;&gt;&lt;b&gt;(&quot;مجموعه نویسندگان فایل&quot;&lt;/b&gt;&lt;/span&gt;&lt;div&gt;&lt;span style=&quot;font-size: 14px;&quot;&gt;&lt;b&gt;,name())&lt;/b&gt;&lt;/span&gt;&lt;/div&gt;&lt;/div&gt;" style="shape=parallelogram;html=1;strokeWidth=2;perimeter=parallelogramPerimeter;whiteSpace=wrap;rounded=0;arcSize=12;size=0.165557275541797;shadow=1;" parent="1" vertex="1">
          <mxGeometry x="1194" y="494" width="170" height="56" as="geometry" />
        </mxCell>
        <mxCell id="LqUghKGCnasKdJAZxhgk-67" style="edgeStyle=orthogonalEdgeStyle;rounded=0;orthogonalLoop=1;jettySize=auto;html=1;exitX=0.5;exitY=1;exitDx=0;exitDy=0;entryX=0.5;entryY=0;entryDx=0;entryDy=0;entryPerimeter=0;" parent="1" source="LqUghKGCnasKdJAZxhgk-65" target="LqUghKGCnasKdJAZxhgk-48" edge="1">
          <mxGeometry relative="1" as="geometry" />
        </mxCell>
      </root>
    </mxGraphModel>
  </diagram>
</mxfile>
